<mxfile host="app.diagrams.net" modified="2023-11-08T21:02:30.009Z" agent="Mozilla/5.0 (Windows NT 10.0; Win64; x64) AppleWebKit/537.36 (KHTML, like Gecko) Chrome/119.0.0.0 Safari/537.36" etag="U4-C4VCCJxShOsuvR7Qt" version="22.0.8" type="device">
  <diagram name="Page-1" id="c4acf3e9-155e-7222-9cf6-157b1a14988f">
    <mxGraphModel dx="1434" dy="768" grid="1" gridSize="10" guides="1" tooltips="1" connect="1" arrows="1" fold="1" page="1" pageScale="1" pageWidth="850" pageHeight="1100" background="none" math="0" shadow="0">
      <root>
        <mxCell id="0" />
        <mxCell id="1" parent="0" />
        <mxCell id="17acba5748e5396b-20" value="&lt;b&gt;&lt;font style=&quot;font-size: 12px;&quot;&gt;UDPLog&lt;/font&gt;&lt;/b&gt;" style="swimlane;html=1;fontStyle=0;childLayout=stackLayout;horizontal=1;startSize=26;fillColor=none;horizontalStack=0;resizeParent=1;resizeLast=0;collapsible=1;marginBottom=0;swimlaneFillColor=#ffffff;rounded=0;shadow=0;comic=0;labelBackgroundColor=none;strokeWidth=1;fontFamily=Verdana;fontSize=10;align=center;" parent="1" vertex="1">
          <mxGeometry x="305" y="80" width="160" height="168" as="geometry" />
        </mxCell>
        <mxCell id="17acba5748e5396b-21" value="+&amp;nbsp;Message: String" style="text;html=1;strokeColor=none;fillColor=none;align=left;verticalAlign=top;spacingLeft=4;spacingRight=4;whiteSpace=wrap;overflow=hidden;rotatable=0;points=[[0,0.5],[1,0.5]];portConstraint=eastwest;" parent="17acba5748e5396b-20" vertex="1">
          <mxGeometry y="26" width="160" height="26" as="geometry" />
        </mxCell>
        <mxCell id="17acba5748e5396b-24" value="+&amp;nbsp;LogDate: Date" style="text;html=1;strokeColor=none;fillColor=none;align=left;verticalAlign=top;spacingLeft=4;spacingRight=4;whiteSpace=wrap;overflow=hidden;rotatable=0;points=[[0,0.5],[1,0.5]];portConstraint=eastwest;" parent="17acba5748e5396b-20" vertex="1">
          <mxGeometry y="52" width="160" height="26" as="geometry" />
        </mxCell>
        <mxCell id="17acba5748e5396b-26" value="+&amp;nbsp;IpAddress: String" style="text;html=1;strokeColor=none;fillColor=none;align=left;verticalAlign=top;spacingLeft=4;spacingRight=4;whiteSpace=wrap;overflow=hidden;rotatable=0;points=[[0,0.5],[1,0.5]];portConstraint=eastwest;" parent="17acba5748e5396b-20" vertex="1">
          <mxGeometry y="78" width="160" height="26" as="geometry" />
        </mxCell>
        <mxCell id="dC8le11Tk2wV6vY0VR0e-1" value="+&amp;nbsp;PortNumber: Integer" style="text;html=1;strokeColor=none;fillColor=none;align=left;verticalAlign=top;spacingLeft=4;spacingRight=4;whiteSpace=wrap;overflow=hidden;rotatable=0;points=[[0,0.5],[1,0.5]];portConstraint=eastwest;" vertex="1" parent="17acba5748e5396b-20">
          <mxGeometry y="104" width="160" height="26" as="geometry" />
        </mxCell>
        <mxCell id="dC8le11Tk2wV6vY0VR0e-2" value="+&amp;nbsp;LogDirection: String" style="text;html=1;strokeColor=none;fillColor=none;align=left;verticalAlign=top;spacingLeft=4;spacingRight=4;whiteSpace=wrap;overflow=hidden;rotatable=0;points=[[0,0.5],[1,0.5]];portConstraint=eastwest;" vertex="1" parent="17acba5748e5396b-20">
          <mxGeometry y="130" width="160" height="26" as="geometry" />
        </mxCell>
        <mxCell id="dC8le11Tk2wV6vY0VR0e-6" value="" style="edgeStyle=orthogonalEdgeStyle;rounded=0;orthogonalLoop=1;jettySize=auto;html=1;" edge="1" parent="1" source="5d2195bd80daf111-8">
          <mxGeometry relative="1" as="geometry">
            <mxPoint x="410" y="1029" as="targetPoint" />
          </mxGeometry>
        </mxCell>
        <mxCell id="5d2195bd80daf111-18" value="&lt;p style=&quot;margin:0px;margin-top:4px;text-align:center;&quot;&gt;&lt;i&gt;&amp;lt;&amp;lt;Enumeration&amp;gt;&amp;gt;&lt;/i&gt;&lt;br&gt;&lt;b&gt;UDPLogDirectionEnum&lt;/b&gt;&lt;br&gt;&lt;/p&gt;&lt;hr size=&quot;1&quot;&gt;&lt;p style=&quot;margin:0px;margin-left:4px;&quot;&gt;Sent&lt;br&gt;Receive&lt;/p&gt;" style="verticalAlign=top;align=left;overflow=fill;fontSize=12;fontFamily=Helvetica;html=1;rounded=0;shadow=0;comic=0;labelBackgroundColor=none;strokeWidth=1" parent="1" vertex="1">
          <mxGeometry x="35" y="80" width="190" height="78" as="geometry" />
        </mxCell>
        <mxCell id="dC8le11Tk2wV6vY0VR0e-3" value="" style="line;strokeWidth=1;fillColor=none;align=left;verticalAlign=middle;spacingTop=-1;spacingLeft=3;spacingRight=3;rotatable=0;labelPosition=right;points=[];portConstraint=eastwest;strokeColor=inherit;" vertex="1" parent="1">
          <mxGeometry x="225" y="135" width="80" height="8" as="geometry" />
        </mxCell>
        <mxCell id="dC8le11Tk2wV6vY0VR0e-4" value="&lt;p style=&quot;margin:0px;margin-top:4px;text-align:center;&quot;&gt;&lt;i&gt;&amp;lt;&amp;lt;Enumeration&amp;gt;&amp;gt;&lt;/i&gt;&lt;br&gt;&lt;b&gt;UDPListenStatusEnum&lt;/b&gt;&lt;br&gt;&lt;/p&gt;&lt;hr size=&quot;1&quot;&gt;&lt;p style=&quot;margin:0px;margin-left:4px;&quot;&gt;NotListening&lt;br&gt;Listening&lt;/p&gt;" style="verticalAlign=top;align=left;overflow=fill;fontSize=12;fontFamily=Helvetica;html=1;rounded=0;shadow=0;comic=0;labelBackgroundColor=none;strokeWidth=1" vertex="1" parent="1">
          <mxGeometry x="540" y="91" width="190" height="78" as="geometry" />
        </mxCell>
        <mxCell id="dC8le11Tk2wV6vY0VR0e-7" value="UDP Diagram" style="shape=umlFrame;whiteSpace=wrap;html=1;pointerEvents=0;" vertex="1" parent="1">
          <mxGeometry x="10" y="30" width="830" height="1320" as="geometry" />
        </mxCell>
        <mxCell id="dC8le11Tk2wV6vY0VR0e-8" value="&lt;span style=&quot;font-weight: normal;&quot;&gt;&lt;i&gt;&amp;lt;&amp;lt;Interface&amp;gt;&amp;gt;&lt;/i&gt;&lt;/span&gt;&lt;br&gt;IUDPLogService" style="swimlane;fontStyle=1;align=center;verticalAlign=top;childLayout=stackLayout;horizontal=1;startSize=40;horizontalStack=0;resizeParent=1;resizeParentMax=0;resizeLast=0;collapsible=1;marginBottom=0;whiteSpace=wrap;html=1;" vertex="1" parent="1">
          <mxGeometry x="305" y="333" width="435" height="154" as="geometry" />
        </mxCell>
        <mxCell id="dC8le11Tk2wV6vY0VR0e-11" value="+&amp;nbsp;GetAllItems():&amp;nbsp;OperationResult&amp;lt;UDPLog[]&amp;gt;" style="text;strokeColor=none;fillColor=none;align=left;verticalAlign=top;spacingLeft=4;spacingRight=4;overflow=hidden;rotatable=0;points=[[0,0.5],[1,0.5]];portConstraint=eastwest;whiteSpace=wrap;html=1;" vertex="1" parent="dC8le11Tk2wV6vY0VR0e-8">
          <mxGeometry y="40" width="435" height="26" as="geometry" />
        </mxCell>
        <mxCell id="dC8le11Tk2wV6vY0VR0e-20" value="+&amp;nbsp;SaveItem(n: UDPLog): OperationResult&amp;lt;Boolean&amp;gt;" style="text;strokeColor=none;fillColor=none;align=left;verticalAlign=top;spacingLeft=4;spacingRight=4;overflow=hidden;rotatable=0;points=[[0,0.5],[1,0.5]];portConstraint=eastwest;whiteSpace=wrap;html=1;" vertex="1" parent="dC8le11Tk2wV6vY0VR0e-8">
          <mxGeometry y="66" width="435" height="26" as="geometry" />
        </mxCell>
        <mxCell id="dC8le11Tk2wV6vY0VR0e-21" value="+&amp;nbsp;DeleteItem(n: Guid): OperationResult&amp;lt;Boolean&amp;gt;" style="text;strokeColor=none;fillColor=none;align=left;verticalAlign=top;spacingLeft=4;spacingRight=4;overflow=hidden;rotatable=0;points=[[0,0.5],[1,0.5]];portConstraint=eastwest;whiteSpace=wrap;html=1;" vertex="1" parent="dC8le11Tk2wV6vY0VR0e-8">
          <mxGeometry y="92" width="435" height="26" as="geometry" />
        </mxCell>
        <mxCell id="dC8le11Tk2wV6vY0VR0e-22" value="+&amp;nbsp;GetItemsByDateRange(n: Date, n: Date):&amp;nbsp;OperationResult&amp;lt;UDPLog[]&amp;gt;" style="text;strokeColor=none;fillColor=none;align=left;verticalAlign=top;spacingLeft=4;spacingRight=4;overflow=hidden;rotatable=0;points=[[0,0.5],[1,0.5]];portConstraint=eastwest;whiteSpace=wrap;html=1;rotation=0;" vertex="1" parent="dC8le11Tk2wV6vY0VR0e-8">
          <mxGeometry y="118" width="435" height="36" as="geometry" />
        </mxCell>
        <mxCell id="dC8le11Tk2wV6vY0VR0e-12" value="OperationResult [T]" style="swimlane;fontStyle=1;align=center;verticalAlign=top;childLayout=stackLayout;horizontal=1;startSize=26;horizontalStack=0;resizeParent=1;resizeParentMax=0;resizeLast=0;collapsible=1;marginBottom=0;whiteSpace=wrap;html=1;" vertex="1" parent="1">
          <mxGeometry x="35" y="253" width="160" height="188" as="geometry" />
        </mxCell>
        <mxCell id="dC8le11Tk2wV6vY0VR0e-13" value="+ Success: Boolean" style="text;strokeColor=none;fillColor=none;align=left;verticalAlign=top;spacingLeft=4;spacingRight=4;overflow=hidden;rotatable=0;points=[[0,0.5],[1,0.5]];portConstraint=eastwest;whiteSpace=wrap;html=1;" vertex="1" parent="dC8le11Tk2wV6vY0VR0e-12">
          <mxGeometry y="26" width="160" height="24" as="geometry" />
        </mxCell>
        <mxCell id="dC8le11Tk2wV6vY0VR0e-17" value="+ Message: String" style="text;strokeColor=none;fillColor=none;align=left;verticalAlign=top;spacingLeft=4;spacingRight=4;overflow=hidden;rotatable=0;points=[[0,0.5],[1,0.5]];portConstraint=eastwest;whiteSpace=wrap;html=1;" vertex="1" parent="dC8le11Tk2wV6vY0VR0e-12">
          <mxGeometry y="50" width="160" height="26" as="geometry" />
        </mxCell>
        <mxCell id="dC8le11Tk2wV6vY0VR0e-16" value="+ Result: [T]" style="text;strokeColor=none;fillColor=none;align=left;verticalAlign=top;spacingLeft=4;spacingRight=4;overflow=hidden;rotatable=0;points=[[0,0.5],[1,0.5]];portConstraint=eastwest;whiteSpace=wrap;html=1;" vertex="1" parent="dC8le11Tk2wV6vY0VR0e-12">
          <mxGeometry y="76" width="160" height="26" as="geometry" />
        </mxCell>
        <mxCell id="dC8le11Tk2wV6vY0VR0e-14" value="" style="line;strokeWidth=1;fillColor=none;align=left;verticalAlign=middle;spacingTop=-1;spacingLeft=3;spacingRight=3;rotatable=0;labelPosition=right;points=[];portConstraint=eastwest;strokeColor=inherit;" vertex="1" parent="dC8le11Tk2wV6vY0VR0e-12">
          <mxGeometry y="102" width="160" height="8" as="geometry" />
        </mxCell>
        <mxCell id="dC8le11Tk2wV6vY0VR0e-15" value="+&amp;nbsp;SetSuccessMode()" style="text;strokeColor=none;fillColor=none;align=left;verticalAlign=top;spacingLeft=4;spacingRight=4;overflow=hidden;rotatable=0;points=[[0,0.5],[1,0.5]];portConstraint=eastwest;whiteSpace=wrap;html=1;rotation=0;" vertex="1" parent="dC8le11Tk2wV6vY0VR0e-12">
          <mxGeometry y="110" width="160" height="26" as="geometry" />
        </mxCell>
        <mxCell id="dC8le11Tk2wV6vY0VR0e-18" value="+&amp;nbsp;SetSuccessMode(n: [T])" style="text;strokeColor=none;fillColor=none;align=left;verticalAlign=top;spacingLeft=4;spacingRight=4;overflow=hidden;rotatable=0;points=[[0,0.5],[1,0.5]];portConstraint=eastwest;whiteSpace=wrap;html=1;rotation=0;" vertex="1" parent="dC8le11Tk2wV6vY0VR0e-12">
          <mxGeometry y="136" width="160" height="26" as="geometry" />
        </mxCell>
        <mxCell id="dC8le11Tk2wV6vY0VR0e-19" value="+&amp;nbsp;SetFailureMode(n: String)" style="text;strokeColor=none;fillColor=none;align=left;verticalAlign=top;spacingLeft=4;spacingRight=4;overflow=hidden;rotatable=0;points=[[0,0.5],[1,0.5]];portConstraint=eastwest;whiteSpace=wrap;html=1;rotation=0;" vertex="1" parent="dC8le11Tk2wV6vY0VR0e-12">
          <mxGeometry y="162" width="160" height="26" as="geometry" />
        </mxCell>
        <mxCell id="dC8le11Tk2wV6vY0VR0e-32" value="" style="edgeStyle=orthogonalEdgeStyle;rounded=0;orthogonalLoop=1;jettySize=auto;html=1;" edge="1" parent="1" source="dC8le11Tk2wV6vY0VR0e-23" target="dC8le11Tk2wV6vY0VR0e-22">
          <mxGeometry relative="1" as="geometry" />
        </mxCell>
        <mxCell id="dC8le11Tk2wV6vY0VR0e-23" value="UDPLogService" style="swimlane;fontStyle=1;align=center;verticalAlign=top;childLayout=stackLayout;horizontal=1;startSize=26;horizontalStack=0;resizeParent=1;resizeParentMax=0;resizeLast=0;collapsible=1;marginBottom=0;whiteSpace=wrap;html=1;rotation=0;" vertex="1" parent="1">
          <mxGeometry x="306" y="523" width="434" height="140" as="geometry">
            <mxRectangle x="305" y="450" width="130" height="30" as="alternateBounds" />
          </mxGeometry>
        </mxCell>
        <mxCell id="dC8le11Tk2wV6vY0VR0e-24" value="+&amp;nbsp;GetAllItems():&amp;nbsp;OperationResult&amp;lt;UDPLog[]&amp;gt;" style="text;strokeColor=none;fillColor=none;align=left;verticalAlign=top;spacingLeft=4;spacingRight=4;overflow=hidden;rotatable=0;points=[[0,0.5],[1,0.5]];portConstraint=eastwest;whiteSpace=wrap;html=1;" vertex="1" parent="dC8le11Tk2wV6vY0VR0e-23">
          <mxGeometry y="26" width="434" height="26" as="geometry" />
        </mxCell>
        <mxCell id="dC8le11Tk2wV6vY0VR0e-25" value="+&amp;nbsp;SaveItem(n: UDPLog): OperationResult&amp;lt;Boolean&amp;gt;" style="text;strokeColor=none;fillColor=none;align=left;verticalAlign=top;spacingLeft=4;spacingRight=4;overflow=hidden;rotatable=0;points=[[0,0.5],[1,0.5]];portConstraint=eastwest;whiteSpace=wrap;html=1;" vertex="1" parent="dC8le11Tk2wV6vY0VR0e-23">
          <mxGeometry y="52" width="434" height="26" as="geometry" />
        </mxCell>
        <mxCell id="dC8le11Tk2wV6vY0VR0e-26" value="+&amp;nbsp;DeleteItem(n: Guid): OperationResult&amp;lt;Boolean&amp;gt;" style="text;strokeColor=none;fillColor=none;align=left;verticalAlign=top;spacingLeft=4;spacingRight=4;overflow=hidden;rotatable=0;points=[[0,0.5],[1,0.5]];portConstraint=eastwest;whiteSpace=wrap;html=1;" vertex="1" parent="dC8le11Tk2wV6vY0VR0e-23">
          <mxGeometry y="78" width="434" height="26" as="geometry" />
        </mxCell>
        <mxCell id="dC8le11Tk2wV6vY0VR0e-27" value="+&amp;nbsp;GetItemsByDateRange(n: Date, n: Date):&amp;nbsp;OperationResult&amp;lt;UDPLog[]&amp;gt;" style="text;strokeColor=none;fillColor=none;align=left;verticalAlign=top;spacingLeft=4;spacingRight=4;overflow=hidden;rotatable=0;points=[[0,0.5],[1,0.5]];portConstraint=eastwest;whiteSpace=wrap;html=1;rotation=0;" vertex="1" parent="dC8le11Tk2wV6vY0VR0e-23">
          <mxGeometry y="104" width="434" height="36" as="geometry" />
        </mxCell>
        <mxCell id="dC8le11Tk2wV6vY0VR0e-36" value="" style="endArrow=diamondThin;endFill=1;endSize=24;html=1;rounded=0;exitX=0.994;exitY=0.923;exitDx=0;exitDy=0;exitPerimeter=0;" edge="1" parent="1" source="dC8le11Tk2wV6vY0VR0e-16">
          <mxGeometry width="160" relative="1" as="geometry">
            <mxPoint x="200" y="353" as="sourcePoint" />
            <mxPoint x="305" y="353" as="targetPoint" />
          </mxGeometry>
        </mxCell>
        <mxCell id="dC8le11Tk2wV6vY0VR0e-37" value="" style="endArrow=diamondThin;endFill=1;endSize=25;html=1;rounded=0;exitX=0.838;exitY=1.077;exitDx=0;exitDy=0;exitPerimeter=0;" edge="1" parent="1" source="dC8le11Tk2wV6vY0VR0e-19">
          <mxGeometry width="160" relative="1" as="geometry">
            <mxPoint x="120" y="442" as="sourcePoint" />
            <mxPoint x="305" y="554" as="targetPoint" />
            <Array as="points">
              <mxPoint x="170" y="553" />
            </Array>
          </mxGeometry>
        </mxCell>
        <mxCell id="dC8le11Tk2wV6vY0VR0e-38" value="&lt;span style=&quot;font-weight: normal;&quot;&gt;&lt;i&gt;&amp;lt;&amp;lt;Interface&amp;gt;&amp;gt;&lt;/i&gt;&lt;/span&gt;&lt;br&gt;ICryptoService&lt;br&gt;&lt;br&gt;" style="swimlane;fontStyle=1;align=center;verticalAlign=top;childLayout=stackLayout;horizontal=1;startSize=40;horizontalStack=0;resizeParent=1;resizeParentMax=0;resizeLast=0;collapsible=1;marginBottom=0;whiteSpace=wrap;html=1;" vertex="1" parent="1">
          <mxGeometry x="306" y="687" width="435" height="92" as="geometry" />
        </mxCell>
        <mxCell id="dC8le11Tk2wV6vY0VR0e-39" value="+ Encrypt(n: String):&amp;nbsp;OperationResult&amp;lt;String&amp;gt;" style="text;strokeColor=none;fillColor=none;align=left;verticalAlign=top;spacingLeft=4;spacingRight=4;overflow=hidden;rotatable=0;points=[[0,0.5],[1,0.5]];portConstraint=eastwest;whiteSpace=wrap;html=1;" vertex="1" parent="dC8le11Tk2wV6vY0VR0e-38">
          <mxGeometry y="40" width="435" height="26" as="geometry" />
        </mxCell>
        <mxCell id="dC8le11Tk2wV6vY0VR0e-40" value="+&amp;nbsp;Decrypt(n: String): OperationResult&amp;lt;String&amp;gt;" style="text;strokeColor=none;fillColor=none;align=left;verticalAlign=top;spacingLeft=4;spacingRight=4;overflow=hidden;rotatable=0;points=[[0,0.5],[1,0.5]];portConstraint=eastwest;whiteSpace=wrap;html=1;" vertex="1" parent="dC8le11Tk2wV6vY0VR0e-38">
          <mxGeometry y="66" width="435" height="26" as="geometry" />
        </mxCell>
        <mxCell id="dC8le11Tk2wV6vY0VR0e-45" value="" style="edgeStyle=orthogonalEdgeStyle;rounded=0;orthogonalLoop=1;jettySize=auto;html=1;entryX=1;entryY=0.5;entryDx=0;entryDy=0;" edge="1" parent="1">
          <mxGeometry relative="1" as="geometry">
            <mxPoint x="545" y="813" as="sourcePoint" />
            <mxPoint x="740" y="740" as="targetPoint" />
            <Array as="points">
              <mxPoint x="546" y="813" />
              <mxPoint x="546" y="799" />
              <mxPoint x="760" y="799" />
              <mxPoint x="760" y="740" />
            </Array>
          </mxGeometry>
        </mxCell>
        <mxCell id="dC8le11Tk2wV6vY0VR0e-46" value="" style="endArrow=diamondThin;endFill=1;endSize=25;html=1;rounded=0;" edge="1" parent="1">
          <mxGeometry width="160" relative="1" as="geometry">
            <mxPoint x="151" y="443" as="sourcePoint" />
            <mxPoint x="306" y="715" as="targetPoint" />
            <Array as="points">
              <mxPoint x="151" y="715" />
            </Array>
          </mxGeometry>
        </mxCell>
        <mxCell id="dC8le11Tk2wV6vY0VR0e-47" value="CryptoService&lt;br&gt;" style="swimlane;fontStyle=1;align=center;verticalAlign=top;childLayout=stackLayout;horizontal=1;startSize=30;horizontalStack=0;resizeParent=1;resizeParentMax=0;resizeLast=0;collapsible=1;marginBottom=0;whiteSpace=wrap;html=1;" vertex="1" parent="1">
          <mxGeometry x="306" y="813" width="435" height="82" as="geometry" />
        </mxCell>
        <mxCell id="dC8le11Tk2wV6vY0VR0e-48" value="+ Encrypt(n: String):&amp;nbsp;OperationResult&amp;lt;String&amp;gt;" style="text;strokeColor=none;fillColor=none;align=left;verticalAlign=top;spacingLeft=4;spacingRight=4;overflow=hidden;rotatable=0;points=[[0,0.5],[1,0.5]];portConstraint=eastwest;whiteSpace=wrap;html=1;" vertex="1" parent="dC8le11Tk2wV6vY0VR0e-47">
          <mxGeometry y="30" width="435" height="26" as="geometry" />
        </mxCell>
        <mxCell id="dC8le11Tk2wV6vY0VR0e-49" value="+&amp;nbsp;Decrypt(n: String): OperationResult&amp;lt;String&amp;gt;" style="text;strokeColor=none;fillColor=none;align=left;verticalAlign=top;spacingLeft=4;spacingRight=4;overflow=hidden;rotatable=0;points=[[0,0.5],[1,0.5]];portConstraint=eastwest;whiteSpace=wrap;html=1;" vertex="1" parent="dC8le11Tk2wV6vY0VR0e-47">
          <mxGeometry y="56" width="435" height="26" as="geometry" />
        </mxCell>
        <mxCell id="dC8le11Tk2wV6vY0VR0e-50" value="" style="endArrow=diamondThin;endFill=1;endSize=25;html=1;rounded=0;exitX=0.594;exitY=1.038;exitDx=0;exitDy=0;exitPerimeter=0;" edge="1" parent="1" source="dC8le11Tk2wV6vY0VR0e-19">
          <mxGeometry width="160" relative="1" as="geometry">
            <mxPoint x="100" y="553" as="sourcePoint" />
            <mxPoint x="306" y="827" as="targetPoint" />
            <Array as="points">
              <mxPoint x="130" y="827" />
            </Array>
          </mxGeometry>
        </mxCell>
        <mxCell id="dC8le11Tk2wV6vY0VR0e-51" value="&lt;span style=&quot;font-weight: normal;&quot;&gt;&lt;i&gt;&amp;lt;&amp;lt;Interface&amp;gt;&amp;gt;&lt;/i&gt;&lt;/span&gt;&lt;br&gt;IUDPService&lt;br&gt;" style="swimlane;fontStyle=1;align=center;verticalAlign=top;childLayout=stackLayout;horizontal=1;startSize=40;horizontalStack=0;resizeParent=1;resizeParentMax=0;resizeLast=0;collapsible=1;marginBottom=0;whiteSpace=wrap;html=1;" vertex="1" parent="1">
          <mxGeometry x="306" y="923" width="435" height="118" as="geometry" />
        </mxCell>
        <mxCell id="dC8le11Tk2wV6vY0VR0e-52" value="+&amp;nbsp;SendMessageAsync(n: IpEndPoint, n: String)" style="text;strokeColor=none;fillColor=none;align=left;verticalAlign=top;spacingLeft=4;spacingRight=4;overflow=hidden;rotatable=0;points=[[0,0.5],[1,0.5]];portConstraint=eastwest;whiteSpace=wrap;html=1;" vertex="1" parent="dC8le11Tk2wV6vY0VR0e-51">
          <mxGeometry y="40" width="435" height="26" as="geometry" />
        </mxCell>
        <mxCell id="dC8le11Tk2wV6vY0VR0e-53" value="+&amp;nbsp;StartListening(n: IpEndPoint)" style="text;strokeColor=none;fillColor=none;align=left;verticalAlign=top;spacingLeft=4;spacingRight=4;overflow=hidden;rotatable=0;points=[[0,0.5],[1,0.5]];portConstraint=eastwest;whiteSpace=wrap;html=1;" vertex="1" parent="dC8le11Tk2wV6vY0VR0e-51">
          <mxGeometry y="66" width="435" height="26" as="geometry" />
        </mxCell>
        <mxCell id="dC8le11Tk2wV6vY0VR0e-54" value="+&amp;nbsp;StopListening()" style="text;strokeColor=none;fillColor=none;align=left;verticalAlign=top;spacingLeft=4;spacingRight=4;overflow=hidden;rotatable=0;points=[[0,0.5],[1,0.5]];portConstraint=eastwest;whiteSpace=wrap;html=1;" vertex="1" parent="dC8le11Tk2wV6vY0VR0e-51">
          <mxGeometry y="92" width="435" height="26" as="geometry" />
        </mxCell>
        <mxCell id="dC8le11Tk2wV6vY0VR0e-55" value="UDPService" style="swimlane;fontStyle=1;align=center;verticalAlign=top;childLayout=stackLayout;horizontal=1;startSize=30;horizontalStack=0;resizeParent=1;resizeParentMax=0;resizeLast=0;collapsible=1;marginBottom=0;whiteSpace=wrap;html=1;" vertex="1" parent="1">
          <mxGeometry x="306" y="1076" width="435" height="246" as="geometry" />
        </mxCell>
        <mxCell id="dC8le11Tk2wV6vY0VR0e-77" value="+&amp;nbsp;isListening: Boolean" style="text;strokeColor=none;fillColor=none;align=left;verticalAlign=top;spacingLeft=4;spacingRight=4;overflow=hidden;rotatable=0;points=[[0,0.5],[1,0.5]];portConstraint=eastwest;whiteSpace=wrap;html=1;" vertex="1" parent="dC8le11Tk2wV6vY0VR0e-55">
          <mxGeometry y="30" width="435" height="26" as="geometry" />
        </mxCell>
        <mxCell id="dC8le11Tk2wV6vY0VR0e-78" value="+&amp;nbsp;isMessageSent: Boolean" style="text;strokeColor=none;fillColor=none;align=left;verticalAlign=top;spacingLeft=4;spacingRight=4;overflow=hidden;rotatable=0;points=[[0,0.5],[1,0.5]];portConstraint=eastwest;whiteSpace=wrap;html=1;" vertex="1" parent="dC8le11Tk2wV6vY0VR0e-55">
          <mxGeometry y="56" width="435" height="26" as="geometry" />
        </mxCell>
        <mxCell id="dC8le11Tk2wV6vY0VR0e-79" value="+ &amp;lt;&amp;lt;event&amp;gt;&amp;gt;&amp;nbsp;udpMessageFired:&amp;nbsp;EventHandler" style="text;strokeColor=none;fillColor=none;align=left;verticalAlign=top;spacingLeft=4;spacingRight=4;overflow=hidden;rotatable=0;points=[[0,0.5],[1,0.5]];portConstraint=eastwest;whiteSpace=wrap;html=1;" vertex="1" parent="dC8le11Tk2wV6vY0VR0e-55">
          <mxGeometry y="82" width="435" height="26" as="geometry" />
        </mxCell>
        <mxCell id="dC8le11Tk2wV6vY0VR0e-76" value="" style="line;strokeWidth=1;fillColor=none;align=left;verticalAlign=middle;spacingTop=-1;spacingLeft=3;spacingRight=3;rotatable=0;labelPosition=right;points=[];portConstraint=eastwest;strokeColor=inherit;" vertex="1" parent="dC8le11Tk2wV6vY0VR0e-55">
          <mxGeometry y="108" width="435" height="8" as="geometry" />
        </mxCell>
        <mxCell id="dC8le11Tk2wV6vY0VR0e-68" value="+&amp;nbsp;SendMessageAsync(n: IpEndPoint, n: String)" style="text;strokeColor=none;fillColor=none;align=left;verticalAlign=top;spacingLeft=4;spacingRight=4;overflow=hidden;rotatable=0;points=[[0,0.5],[1,0.5]];portConstraint=eastwest;whiteSpace=wrap;html=1;" vertex="1" parent="dC8le11Tk2wV6vY0VR0e-55">
          <mxGeometry y="116" width="435" height="26" as="geometry" />
        </mxCell>
        <mxCell id="dC8le11Tk2wV6vY0VR0e-56" value="+&amp;nbsp;SendMessageAsync(n: IpEndPoint, n: String)" style="text;strokeColor=none;fillColor=none;align=left;verticalAlign=top;spacingLeft=4;spacingRight=4;overflow=hidden;rotatable=0;points=[[0,0.5],[1,0.5]];portConstraint=eastwest;whiteSpace=wrap;html=1;" vertex="1" parent="dC8le11Tk2wV6vY0VR0e-55">
          <mxGeometry y="142" width="435" height="26" as="geometry" />
        </mxCell>
        <mxCell id="dC8le11Tk2wV6vY0VR0e-57" value="+&amp;nbsp;StartListening(n: IpEndPoint)" style="text;strokeColor=none;fillColor=none;align=left;verticalAlign=top;spacingLeft=4;spacingRight=4;overflow=hidden;rotatable=0;points=[[0,0.5],[1,0.5]];portConstraint=eastwest;whiteSpace=wrap;html=1;" vertex="1" parent="dC8le11Tk2wV6vY0VR0e-55">
          <mxGeometry y="168" width="435" height="26" as="geometry" />
        </mxCell>
        <mxCell id="dC8le11Tk2wV6vY0VR0e-58" value="+&amp;nbsp;StopListening()" style="text;strokeColor=none;fillColor=none;align=left;verticalAlign=top;spacingLeft=4;spacingRight=4;overflow=hidden;rotatable=0;points=[[0,0.5],[1,0.5]];portConstraint=eastwest;whiteSpace=wrap;html=1;" vertex="1" parent="dC8le11Tk2wV6vY0VR0e-55">
          <mxGeometry y="194" width="435" height="26" as="geometry" />
        </mxCell>
        <mxCell id="dC8le11Tk2wV6vY0VR0e-60" value="- ListenToUdp(n: IpEndPoint)" style="text;strokeColor=none;fillColor=none;align=left;verticalAlign=top;spacingLeft=4;spacingRight=4;overflow=hidden;rotatable=0;points=[[0,0.5],[1,0.5]];portConstraint=eastwest;whiteSpace=wrap;html=1;" vertex="1" parent="dC8le11Tk2wV6vY0VR0e-55">
          <mxGeometry y="220" width="435" height="26" as="geometry" />
        </mxCell>
        <mxCell id="dC8le11Tk2wV6vY0VR0e-59" value="" style="edgeStyle=orthogonalEdgeStyle;rounded=0;orthogonalLoop=1;jettySize=auto;html=1;entryX=1;entryY=0.5;entryDx=0;entryDy=0;" edge="1" parent="1">
          <mxGeometry relative="1" as="geometry">
            <mxPoint x="545" y="1076" as="sourcePoint" />
            <mxPoint x="740" y="1003" as="targetPoint" />
            <Array as="points">
              <mxPoint x="546" y="1076" />
              <mxPoint x="546" y="1062" />
              <mxPoint x="760" y="1062" />
              <mxPoint x="760" y="1003" />
            </Array>
          </mxGeometry>
        </mxCell>
        <mxCell id="dC8le11Tk2wV6vY0VR0e-61" value="IpEndPoint" style="swimlane;fontStyle=1;align=center;verticalAlign=top;childLayout=stackLayout;horizontal=1;startSize=26;horizontalStack=0;resizeParent=1;resizeParentMax=0;resizeLast=0;collapsible=1;marginBottom=0;whiteSpace=wrap;html=1;" vertex="1" parent="1">
          <mxGeometry x="30" y="923" width="160" height="52" as="geometry" />
        </mxCell>
        <mxCell id="dC8le11Tk2wV6vY0VR0e-64" value="+ IpEndPoint(n: long, n: int)" style="text;strokeColor=none;fillColor=none;align=left;verticalAlign=top;spacingLeft=4;spacingRight=4;overflow=hidden;rotatable=0;points=[[0,0.5],[1,0.5]];portConstraint=eastwest;whiteSpace=wrap;html=1;" vertex="1" parent="dC8le11Tk2wV6vY0VR0e-61">
          <mxGeometry y="26" width="160" height="26" as="geometry" />
        </mxCell>
        <mxCell id="dC8le11Tk2wV6vY0VR0e-65" value="" style="endArrow=diamondThin;endFill=1;endSize=24;html=1;rounded=0;exitX=0.713;exitY=1.077;exitDx=0;exitDy=0;exitPerimeter=0;entryX=0.007;entryY=0.923;entryDx=0;entryDy=0;entryPerimeter=0;" edge="1" parent="1">
          <mxGeometry width="160" relative="1" as="geometry">
            <mxPoint x="142.07999999999993" y="977.002" as="sourcePoint" />
            <mxPoint x="307.0450000000001" y="1012.998" as="targetPoint" />
            <Array as="points">
              <mxPoint x="142" y="1013" />
            </Array>
          </mxGeometry>
        </mxCell>
        <mxCell id="dC8le11Tk2wV6vY0VR0e-66" value="" style="endArrow=diamondThin;endFill=1;endSize=24;html=1;rounded=0;exitX=0.5;exitY=1.038;exitDx=0;exitDy=0;exitPerimeter=0;entryX=0.007;entryY=0.923;entryDx=0;entryDy=0;entryPerimeter=0;" edge="1" parent="1">
          <mxGeometry width="160" relative="1" as="geometry">
            <mxPoint x="111" y="975.988" as="sourcePoint" />
            <mxPoint x="305.99500000000006" y="1118.998" as="targetPoint" />
            <Array as="points">
              <mxPoint x="111" y="1119" />
            </Array>
          </mxGeometry>
        </mxCell>
        <mxCell id="dC8le11Tk2wV6vY0VR0e-80" value="&lt;b&gt;UDPPacketArgs&lt;/b&gt;" style="swimlane;fontStyle=0;childLayout=stackLayout;horizontal=1;startSize=26;fillColor=none;horizontalStack=0;resizeParent=1;resizeParentMax=0;resizeLast=0;collapsible=1;marginBottom=0;whiteSpace=wrap;html=1;" vertex="1" parent="1">
          <mxGeometry x="551" y="210" width="140" height="86" as="geometry" />
        </mxCell>
        <mxCell id="dC8le11Tk2wV6vY0VR0e-81" value="-&amp;nbsp;Data: UDPLog" style="text;strokeColor=none;fillColor=none;align=left;verticalAlign=top;spacingLeft=4;spacingRight=4;overflow=hidden;rotatable=0;points=[[0,0.5],[1,0.5]];portConstraint=eastwest;whiteSpace=wrap;html=1;" vertex="1" parent="dC8le11Tk2wV6vY0VR0e-80">
          <mxGeometry y="26" width="140" height="26" as="geometry" />
        </mxCell>
        <mxCell id="dC8le11Tk2wV6vY0VR0e-84" value="" style="line;strokeWidth=1;fillColor=none;align=left;verticalAlign=middle;spacingTop=-1;spacingLeft=3;spacingRight=3;rotatable=0;labelPosition=right;points=[];portConstraint=eastwest;strokeColor=inherit;" vertex="1" parent="dC8le11Tk2wV6vY0VR0e-80">
          <mxGeometry y="52" width="140" height="8" as="geometry" />
        </mxCell>
        <mxCell id="dC8le11Tk2wV6vY0VR0e-82" value="+&amp;nbsp;GetData(): UDPLog" style="text;strokeColor=none;fillColor=none;align=left;verticalAlign=top;spacingLeft=4;spacingRight=4;overflow=hidden;rotatable=0;points=[[0,0.5],[1,0.5]];portConstraint=eastwest;whiteSpace=wrap;html=1;" vertex="1" parent="dC8le11Tk2wV6vY0VR0e-80">
          <mxGeometry y="60" width="140" height="26" as="geometry" />
        </mxCell>
        <mxCell id="dC8le11Tk2wV6vY0VR0e-85" value="" style="endArrow=open;endFill=1;endSize=12;html=1;rounded=0;entryX=1;entryY=0.5;entryDx=0;entryDy=0;" edge="1" parent="1" target="17acba5748e5396b-26">
          <mxGeometry width="160" relative="1" as="geometry">
            <mxPoint x="550" y="260" as="sourcePoint" />
            <mxPoint x="840" y="270" as="targetPoint" />
            <Array as="points">
              <mxPoint x="510" y="260" />
              <mxPoint x="510" y="171" />
            </Array>
          </mxGeometry>
        </mxCell>
        <mxCell id="dC8le11Tk2wV6vY0VR0e-92" value="" style="endArrow=none;html=1;rounded=0;exitX=1.007;exitY=0.846;exitDx=0;exitDy=0;exitPerimeter=0;" edge="1" parent="1">
          <mxGeometry width="50" height="50" relative="1" as="geometry">
            <mxPoint x="741.0450000000001" y="1239.996" as="sourcePoint" />
            <mxPoint x="730" y="120" as="targetPoint" />
            <Array as="points">
              <mxPoint x="797" y="1240" />
              <mxPoint x="800" y="120" />
            </Array>
          </mxGeometry>
        </mxCell>
      </root>
    </mxGraphModel>
  </diagram>
</mxfile>
